<?xml version="1.0" encoding="utf-8"?>
<!-- Generator: Adobe Illustrator 24.2.1, SVG Export Plug-In . SVG Version: 6.00 Build 0)  -->
<svg version="1.1" id="Capa_1" xmlns="http://www.w3.org/2000/svg" xmlns:xlink="http://www.w3.org/1999/xlink" x="0px" y="0px"
	 viewBox="0 0 480.2 480.2" style="enable-background:new 0 0 480.2 480.2;" xml:space="preserve">
<style type="text/css">
	.st0{fill:#DC3545;}
</style>
<g>
	<g>
		<path class="st0" d="M455,182.6c19.8-24.3,28.5-55.8,23.9-86.8C470,34.6,413.1-7.7,351.9,1.2c-27.6,4-52.7,18.2-70.4,39.8
			c-14,17.8-37.1,25.8-59.1,20.3c-18.5-5.1-37.8-6.5-56.8-4.1c-64.3,8.7-115,58.9-124.3,123.2c-4,28.7,0.8,57.9,13.8,83.7
			C24.2,264.6-0.4,290,0,320.9c0.4,27.8,21.2,51.1,48.7,54.7l8.6,88.5c0,8.8,7.2,16,16,16H120c4.7,0,9.1-2,12.1-5.6
			c3.2-3.8,4.5-8.8,3.5-13.6l-21.4-84.8h4c8.8,0,17.7,0.7,26.4,1.9c28.7,62.2,91,102.1,159.6,102.1c5.3,0,10.6-0.2,16-0.7
			c84.9-8.4,151.8-76,159.2-161c3.1-37.7-6.1-75.4-26.2-107.4C447.8,202.2,448.4,190.7,455,182.6z M48,359.3
			c-21.6-4.4-35.6-25.5-31.2-47.2c3.2-15.7,15.5-28,31.2-31.2V359.3z M120,464.1l-46.7-0.8l-8.5-87.2h33L120,464.1z M64,360.1v-80
			h16v80H64z M118.3,360.1H96v-80h22.2c23.2,0,46.3-3.7,68.3-11.1l37.4-12.5v127.1l-37.4-12.5C164.6,363.8,141.5,360.1,118.3,360.1z
			 M463.5,317.2c-7.1,87.9-84.1,153.5-172,146.4c-53.4-4.3-101.1-35.1-127.1-82c5.7,1.4,11.5,2.9,17.1,4.8l88,29.3
			c0.8,0.3,1.7,0.4,2.5,0.4c4.4,0,8-3.6,8-8v-40c17.7,0,32-14.3,32-32v-32c0-17.7-14.3-32-32-32v-40c0-4.4-3.6-8-8-8
			c-0.9,0-1.7,0.1-2.5,0.4l-88,29.3c-20.4,6.8-41.7,10.3-63.2,10.3H73.4c-14.4-24.6-20.1-53.4-16.2-81.6
			c9.7-70,74.2-118.9,144.2-109.2c5.6,0.8,11.2,1.9,16.7,3.5c28.1,7.2,57.8-2.8,75.7-25.6c33.5-41.1,93.9-47.2,135-13.7
			s47.2,93.9,13.7,135c-10.9,13.4-12.1,32.3-2.8,47C458,248.6,466.4,282.9,463.5,317.2z M240,389V251.2l24-8V397L240,389z
			 M280,352.1v-64c8.8,0,16,7.2,16,16v32C296,344.9,288.9,352.1,280,352.1z"/>
	</g>
</g>
<g>
	<g>
		<rect x="112" y="328.1" class="st0" width="32" height="16"/>
	</g>
</g>
<g>
	<g>
		<rect x="112" y="296.1" class="st0" width="32" height="16"/>
	</g>
</g>
<g>
	<g>
		<path class="st0" d="M406.7,107.7c-0.6-0.9-1.3-1.6-2.2-2.2l-48-32c-3.7-2.5-8.6-1.5-11.1,2.2c-0.9,1.3-1.3,2.9-1.3,4.4v64
			c0,3,1.6,5.7,4.2,7.1c2.6,1.4,5.8,1.2,8.2-0.4l48-32C408.2,116.3,409.2,111.3,406.7,107.7z M360,129.2V95.1l25.6,17L360,129.2z"/>
	</g>
</g>
<g>
	<g>
		<path class="st0" d="M368,40.1c-39.8,0-72,32.2-72,72c0,39.7,32.3,72,72,72c39.8,0,72-32.2,72-72S407.8,40.1,368,40.1z M368,168.1
			c-30.9,0-56-25.1-56-56c0-30.9,25.1-56,56-56c30.9,0,56,25.1,56,56S399,168.1,368,168.1z"/>
	</g>
</g>
<g>
	<g>
		<path class="st0" d="M208,144.1h-8c-4.4,0-8-3.6-8-8v-24c0-13.3-10.7-24-24-24s-24,10.7-24,24v24c0,4.4-3.6,8-8,8c0-4.4-3.6-8-8-8
			H96c-4.4,0-8,3.6-8,8v88c0,4.4,3.6,8,8,8h32c4.4,0,8-3.6,8-8h72c13.3,0,24-10.7,24-24v-40C232,154.9,221.3,144.1,208,144.1z
			 M120,224.1h-16v-72h16V224.1z M216,208.1c0,4.4-3.6,8-8,8h-72v-56c13.3,0,24-10.7,24-24v-24c0-4.4,3.6-8,8-8s8,3.6,8,8v24
			c0,13.3,10.7,24,24,24h8c4.4,0,8,3.6,8,8V208.1z"/>
	</g>
</g>
<g>
	<g>
		<path class="st0" d="M441,290.5l-3.4-3.4c-8.1-8.1-20.8-9.3-30.3-3l-8.6,5.8l-8.6-5.8c-9.5-6.3-22.2-5.1-30.3,3l-3.4,3.4
			c-9.4,9.4-9.4,24.6,0,33.9l36.7,36.7c3.1,3.1,8.2,3.1,11.3,0l36.7-36.7C450.4,315.1,450.4,299.9,441,290.5z M429.7,313.1
			C429.7,313.1,429.7,313.1,429.7,313.1l-31,31l-31-31c-3.1-3.1-3.1-8.2,0-11.3l3.4-3.4c2.7-2.7,6.9-3.1,10.1-1l13.1,8.7
			c2.7,1.8,6.2,1.8,8.9,0l13.1-8.7c3.2-2.1,7.4-1.7,10.1,1v0l3.4,3.4C432.8,305,432.8,310,429.7,313.1z"/>
	</g>
</g>
<g>
	<g>
		
			<rect x="299.6" y="224.1" transform="matrix(0.2428 -0.9701 0.9701 0.2428 14.1479 482.3664)" class="st0" width="33" height="16"/>
	</g>
</g>
<g>
	<g>
		
			<rect x="326.2" y="248.1" transform="matrix(0.8944 -0.4472 0.4472 0.8944 -78.2142 180.8979)" class="st0" width="35.8" height="16"/>
	</g>
</g>
<g>
	<g>
		<rect x="308" y="399.6" transform="matrix(0.9701 -0.2425 0.2425 0.9701 -91.477 89.0585)" class="st0" width="16" height="33"/>
	</g>
</g>
<g>
	<g>
		
			<rect x="336" y="374.2" transform="matrix(0.4472 -0.8944 0.8944 0.4472 -160.5297 524.4655)" class="st0" width="16" height="35.8"/>
	</g>
</g>
<g>
	<g>
		<path class="st0" d="M8,216.1h16c0-108.6,64.4-176,168-176v-16C78.6,24.1,8,97.7,8,216.1z"/>
	</g>
</g>
</svg>
