<?xml version="1.0" encoding="utf-8"?>
<!-- Generator: Adobe Illustrator 24.2.1, SVG Export Plug-In . SVG Version: 6.00 Build 0)  -->
<svg version="1.1" id="_x33_0" xmlns="http://www.w3.org/2000/svg" xmlns:xlink="http://www.w3.org/1999/xlink" x="0px" y="0px"
	 viewBox="0 0 512 512" style="enable-background:new 0 0 512 512;" xml:space="preserve">
<style type="text/css">
	.st0{fill:#DC3545;}
</style>
<g>
	<path class="st0" d="M157.7,298.3l-11.3,11.3l38.2,38.2l85.6-102.7l-12.3-10.2l-74.4,89.3L157.7,298.3z"/>
	<path class="st0" d="M64,88c13.2,0,24-10.8,24-24S77.2,40,64,40S40,50.8,40,64S50.8,88,64,88z M64,56c4.4,0,8,3.6,8,8s-3.6,8-8,8
		s-8-3.6-8-8S59.6,56,64,56z"/>
	<path class="st0" d="M128,88c13.2,0,24-10.8,24-24s-10.8-24-24-24s-24,10.8-24,24S114.8,88,128,88z M128,56c4.4,0,8,3.6,8,8
		s-3.6,8-8,8s-8-3.6-8-8S123.6,56,128,56z"/>
	<path class="st0" d="M192,88c13.2,0,24-10.8,24-24s-10.8-24-24-24s-24,10.8-24,24S178.8,88,192,88z M192,56c4.4,0,8,3.6,8,8
		s-3.6,8-8,8s-8-3.6-8-8S187.6,56,192,56z"/>
	<path class="st0" d="M504,208c0-54.6-42.4-99.5-96-103.6V32c0-13.2-10.8-24-24-24H32C18.8,8,8,18.8,8,32v448c0,13.2,10.8,24,24,24
		h368c22.1,0,40-17.9,40-40V344c0-8.8-7.2-16-16-16v-18.9C469.8,298.2,504,257.1,504,208z M488,208c0,48.5-39.5,88-88,88
		s-88-39.5-88-88s39.5-88,88-88S488,159.5,488,208z M296.9,221.1c1.9,15.3,7.2,29.5,15.1,42v21.3c0,64.7-42.7,121.6-104,139.2
		c-61.3-17.6-104-74.5-104-139.2v-61.3c38.6-4.4,73.5-14.5,104-30.2C234.5,206.7,264.4,216.1,296.9,221.1L296.9,221.1z M296.2,204.8
		c-31.1-5.2-59.4-14.5-84.4-27.9l-3.8-2l-3.8,2c-31.3,16.8-68,27.3-109,31.1l-7.3,0.7v75.8c0,72.6,48.5,136.5,117.9,155.2l2.1,0.6
		l2.1-0.6C279.5,420.9,328,357.1,328,284.5v-1.6c4.8,4.6,10,8.7,15.5,12.3c-4.7,77.5-59.7,142.9-135.5,160.6
		C127.8,437.1,72,367,72,284.5V192c48-0.6,94.8-13.9,136-38.6c27.9,16.7,58.1,28.1,90.1,34C296.9,193,296.3,198.9,296.2,204.8
		L296.2,204.8z M32,24h352c4.4,0,8,3.6,8,8v72H24V32C24,27.6,27.6,24,32,24z M24,480V120h320.8c-19.2,12.1-34.2,30.3-42.2,51.9
		c-32.2-5.7-62.5-17.4-90.3-34.7l-4.2-2.6l-4.2,2.6C163.2,162.6,116.4,176,68.5,176H56v108.5c0,90.6,61.8,167.7,150.3,187.3l1.7,0.4
		l1.7-0.4c81.3-18.1,141.1-86.4,149.2-168.3c5.5,2.4,11.2,4.2,17.1,5.6V328c-8.8,0-16,7.2-16,16v120c0,9,3.1,17.3,8.2,24H32
		C27.6,488,24,484.4,24,480z M424,344v16h-48v-16H424z M400,488c-13.2,0-24-10.8-24-24v-88h48v88C424,477.2,413.2,488,400,488z
		 M408,328h-16v-16.4c2.6,0.2,5.3,0.4,8,0.4s5.4-0.2,8-0.4V328z"/>
	<path class="st0" d="M392,200h16v16h-16V200z"/>
	<path class="st0" d="M424,200h16v16h-16V200z"/>
	<path class="st0" d="M360,200h16v16h-16V200z"/>
</g>
</svg>
